<?xml version="1.0" standalone="no"?>
<!DOCTYPE svg PUBLIC "-//W3C//DTD SVG 20010904//EN"
 "http://www.w3.org/TR/2001/REC-SVG-20010904/DTD/svg10.dtd">
<svg version="1.0" xmlns="http://www.w3.org/2000/svg"
 width="718.000000pt" height="718.000000pt" viewBox="0 0 718.000000 718.000000"
 preserveAspectRatio="xMidYMid meet">
<metadata>
Created by potrace 1.11, written by Peter Selinger 2001-2013
</metadata>
<g transform="translate(0.000000,718.000000) scale(0.100000,-0.100000)"
fill="#000000" stroke="none">
<path d="M3580 6620 c-73 -13 -156 -48 -217 -94 -119 -87 -219 -205 -578 -676
-262 -345 -418 -508 -599 -627 -204 -135 -473 -237 -790 -298 -294 -58 -385
-82 -471 -124 -493 -244 -744 -912 -570 -1516 143 -495 554 -873 1155 -1063
52 -16 119 -35 148 -42 43 -10 52 -15 47 -29 -25 -61 -86 -260 -101 -331 -15
-66 -19 -125 -18 -265 0 -166 3 -187 28 -270 107 -357 291 -522 758 -680 257
-88 477 -121 883 -132 681 -18 1287 109 1726 364 249 144 480 375 587 588 60
121 98 308 89 438 -9 126 -29 184 -141 417 -112 231 -135 293 -160 412 -29
138 -31 259 -7 390 25 141 56 228 129 373 96 189 214 331 632 765 532 553 666
713 771 922 100 198 92 373 -23 503 -91 104 -337 229 -523 266 -49 10 -147 14
-330 14 -218 -1 -282 -4 -400 -23 -173 -27 -352 -70 -513 -124 -117 -39 -392
-165 -452 -208 l-27 -19 -7 92 c-26 359 -152 644 -351 792 -88 66 -125 84
-258 129 -172 58 -304 75 -417 56z"/>
</g>
</svg>
