<?xml version="1.0" standalone="no"?>
<!DOCTYPE svg PUBLIC "-//W3C//DTD SVG 20010904//EN"
 "http://www.w3.org/TR/2001/REC-SVG-20010904/DTD/svg10.dtd">
<svg version="1.0" xmlns="http://www.w3.org/2000/svg"
 width="512.000000pt" height="512.000000pt" viewBox="0 0 512.000000 512.000000"
 preserveAspectRatio="xMidYMid meet">
<metadata>
Created by potrace 1.11, written by Peter Selinger 2001-2013
</metadata>
<g transform="translate(0.000000,512.000000) scale(0.100000,-0.100000)"
fill="#000000" stroke="none">
<path d="M1700 3711 c-13 -9 -21 -11 -17 -4 7 11 -9 13 -28 1 -5 -3 -21 -4
-35 -3 -14 1 -35 -4 -48 -12 -12 -7 -27 -11 -33 -8 -5 4 -15 2 -22 -3 -7 -5
-20 -8 -30 -6 -11 1 -17 -2 -14 -10 3 -7 -5 -11 -22 -10 -14 0 -32 -6 -39 -15
-8 -9 -10 -10 -7 -2 6 9 1 9 -17 -3 -14 -9 -28 -13 -31 -9 -4 3 -7 2 -7 -4 0
-6 -11 -14 -25 -17 -16 -4 -23 -11 -19 -18 5 -7 2 -9 -9 -5 -9 3 -19 2 -22 -4
-4 -5 -11 -7 -16 -3 -5 3 -8 0 -7 -8 2 -8 -6 -13 -19 -12 -14 1 -20 -3 -16
-13 3 -8 2 -13 -3 -12 -21 4 -35 -2 -29 -11 3 -5 -1 -10 -10 -10 -8 0 -18 -7
-21 -15 -4 -8 -10 -12 -15 -9 -5 3 -9 0 -9 -6 0 -6 -5 -8 -12 -4 -7 4 -8 3 -4
-4 4 -6 -2 -17 -14 -24 -11 -7 -20 -19 -20 -26 0 -7 -4 -10 -10 -7 -5 3 -10
-1 -10 -9 0 -9 -6 -16 -13 -16 -8 0 -20 -11 -27 -25 -7 -14 -20 -25 -27 -25
-8 0 -11 -4 -8 -10 6 -10 -25 -59 -38 -60 -5 0 -5 5 -1 12 4 7 3 8 -4 4 -6 -4
-8 -14 -5 -23 4 -10 -1 -21 -13 -30 -10 -8 -18 -16 -16 -18 1 -3 2 -11 2 -17
0 -9 -4 -8 -10 2 -8 12 -10 11 -10 -7 0 -13 -6 -23 -12 -23 -10 0 -10 -2 0 -9
11 -6 10 -10 -3 -15 -11 -4 -15 -13 -12 -26 3 -11 1 -18 -4 -14 -12 7 -30 -41
-23 -63 5 -15 4 -16 -5 -3 -6 8 -11 11 -12 5 -1 -5 -3 -23 -5 -38 -1 -16 -8
-35 -14 -42 -7 -8 -10 -22 -8 -32 2 -10 -3 -23 -12 -30 -10 -8 -11 -12 -2 -13
6 0 12 -5 12 -11 0 -5 -4 -7 -10 -4 -6 4 -10 -11 -10 -38 0 -24 -3 -47 -7 -51
-11 -10 -12 -37 -2 -30 5 3 9 1 9 -5 0 -5 -6 -12 -12 -14 -10 -4 -10 -6 0 -6
6 -1 12 -6 12 -12 0 -5 -4 -7 -10 -4 -5 3 -10 1 -10 -4 0 -6 5 -11 10 -11 6 0
10 -5 10 -11 0 -5 -4 -8 -8 -5 -5 3 -9 -1 -9 -9 0 -8 5 -11 10 -8 5 3 7 0 5
-8 -3 -8 -11 -13 -17 -11 -7 1 -10 -2 -6 -8 3 -6 10 -8 14 -6 4 3 8 -1 8 -9 0
-8 -3 -12 -7 -10 -4 2 -7 -2 -7 -10 0 -8 4 -12 9 -9 13 8 10 -10 -4 -25 -10
-11 -10 -13 0 -7 9 5 12 -8 12 -53 0 -34 4 -61 10 -61 6 0 10 -16 10 -35 0
-21 5 -35 13 -35 8 0 7 -4 -3 -10 -14 -9 -7 -15 14 -11 5 1 3 -6 -5 -15 -10
-13 -11 -16 -1 -10 9 6 12 3 10 -10 -2 -13 2 -18 12 -16 12 3 13 1 3 -9 -15
-15 -17 -33 -3 -24 10 6 14 -11 12 -50 0 -11 2 -14 4 -7 9 20 27 13 21 -9 -3
-12 0 -22 9 -26 8 -3 14 -14 14 -25 0 -12 4 -17 12 -12 7 5 9 2 6 -8 -4 -8 2
-22 13 -32 11 -9 17 -21 14 -26 -3 -6 1 -10 9 -10 9 0 16 -9 16 -20 0 -11 7
-23 16 -27 8 -3 13 -12 9 -21 -5 -13 -3 -13 12 -1 9 8 14 9 10 2 -7 -12 74
-103 93 -103 5 0 6 -8 3 -17 -5 -12 -2 -15 10 -10 9 3 17 2 17 -4 0 -14 26
-39 39 -39 6 0 20 -9 31 -20 11 -11 20 -17 20 -14 0 3 7 -2 16 -10 8 -9 20
-14 25 -11 5 4 9 -1 9 -9 0 -9 3 -15 8 -15 18 3 33 -2 28 -9 -2 -4 5 -9 17 -9
12 -1 23 -7 25 -13 2 -5 8 -8 13 -4 5 3 9 0 9 -6 0 -6 5 -8 10 -5 6 3 10 1 10
-6 0 -8 5 -7 17 2 12 10 14 10 9 1 -4 -7 0 -14 11 -18 10 -3 27 -10 38 -15 11
-5 31 -10 45 -11 14 -2 28 -7 32 -13 5 -6 8 -5 8 3 0 6 4 12 10 12 5 0 6 -8 3
-18 -6 -15 -5 -16 12 -2 13 11 16 11 11 2 -6 -10 -2 -13 15 -12 45 4 80 0 75
-8 -3 -5 1 -9 9 -9 8 0 12 4 9 9 -3 4 0 8 5 8 6 0 11 -4 11 -10 0 -13 182 -10
199 4 12 8 13 8 7 -1 -4 -7 -2 -13 3 -13 6 0 11 5 11 10 0 6 19 10 43 10 23 0
49 4 57 10 9 5 19 5 27 -2 10 -8 13 -7 13 4 0 9 9 15 23 15 42 1 48 3 41 16
-5 7 0 6 11 -3 15 -12 17 -12 10 -1 -6 11 -3 13 13 9 13 -4 22 -1 22 5 0 6 3
7 7 4 3 -4 12 1 20 11 9 10 11 11 7 2 -7 -12 -5 -13 8 -3 8 7 18 10 21 6 4 -3
7 2 7 13 0 16 2 17 10 4 6 -10 10 -11 10 -2 0 6 7 12 15 12 8 0 15 5 15 11 0
5 5 7 10 4 6 -3 10 -1 10 4 0 6 6 10 13 9 6 -2 11 3 9 10 -1 8 1 11 5 9 12 -8
84 38 75 48 -4 4 3 6 15 3 16 -4 20 -2 16 9 -3 7 -2 13 3 12 24 -4 34 3 35 24
0 12 3 17 5 10 4 -8 11 -7 23 5 10 9 16 20 14 25 -2 4 3 7 11 7 9 0 16 7 16
16 0 8 5 12 10 9 6 -3 10 1 10 9 0 9 6 16 14 16 8 0 16 10 18 23 2 12 13 26
25 32 13 5 22 14 22 20 -3 25 2 46 9 41 4 -2 9 7 10 20 1 16 -2 23 -9 19 -6
-4 -5 2 3 14 11 17 11 25 0 42 -9 13 -9 18 -2 14 7 -4 7 1 -2 14 -7 12 -16 21
-20 21 -5 0 -8 6 -8 14 0 8 -7 17 -16 20 -8 3 -12 11 -8 17 4 7 3 9 -4 5 -6
-3 -17 1 -25 9 -9 8 -27 15 -41 15 -14 0 -26 6 -26 13 0 8 -4 7 -10 -3 -9 -13
-10 -13 -10 0 0 13 -1 13 -10 0 -6 -10 -10 -11 -10 -2 0 6 -5 12 -11 12 -5 0
-7 -4 -4 -10 4 -6 -6 -10 -24 -10 -16 0 -34 -6 -38 -14 -4 -8 -12 -15 -18 -16
-15 -3 -51 -30 -40 -30 6 0 2 -5 -7 -11 -10 -5 -18 -16 -18 -24 0 -17 -34 -38
-44 -27 -4 3 -4 -1 0 -11 4 -12 1 -17 -10 -17 -9 0 -16 -7 -16 -15 0 -9 -6
-12 -17 -8 -11 4 -14 3 -9 -5 4 -7 -3 -14 -20 -18 -19 -5 -22 -9 -12 -15 9 -6
7 -9 -9 -9 -13 0 -23 -4 -23 -10 0 -5 -9 -10 -21 -10 -11 0 -17 -4 -14 -10 3
-5 -1 -11 -9 -11 -36 -3 -41 -6 -38 -19 3 -11 0 -11 -14 1 -12 9 -15 9 -10 2
5 -9 0 -13 -18 -13 -13 0 -26 -5 -28 -12 -2 -6 -26 -12 -56 -12 -39 -1 -52 -4
-52 -16 0 -9 -3 -11 -8 -5 -9 13 -32 18 -32 7 0 -4 -9 -8 -20 -9 -13 -1 -18 2
-13 10 4 7 0 6 -10 -2 -11 -9 -17 -10 -17 -2 0 6 -5 11 -11 11 -5 0 -7 -4 -4
-10 3 -5 1 -10 -4 -10 -6 0 -11 6 -11 13 0 8 -3 9 -8 1 -4 -6 -15 -11 -24 -11
-15 0 -15 3 -5 15 10 13 9 14 -10 3 -13 -6 -23 -8 -23 -3 0 5 -16 8 -35 7 -19
-1 -35 2 -35 8 0 5 -7 7 -15 3 -8 -3 -15 -1 -15 4 0 6 -8 10 -18 10 -10 0 -24
6 -31 13 -11 10 -12 9 -6 -3 6 -11 3 -10 -12 2 -11 10 -27 18 -36 18 -9 0 -17
5 -17 10 0 6 -9 10 -21 10 -11 0 -17 5 -14 10 3 6 -1 10 -11 10 -9 0 -27 11
-39 24 -13 14 -26 22 -29 19 -3 -4 -6 -1 -6 6 0 7 -5 9 -12 5 -10 -6 -10 -4 0
8 11 14 10 16 -13 14 -21 -3 -23 -1 -13 11 9 11 8 13 -2 11 -8 -2 -19 7 -25
20 -5 12 -16 22 -23 22 -9 0 -12 6 -8 15 3 9 0 15 -9 15 -8 0 -15 7 -15 16 0
8 -4 12 -10 9 -6 -4 -10 5 -10 19 0 16 -6 26 -15 26 -8 0 -12 6 -9 14 3 7 -2
20 -10 29 -9 9 -16 24 -16 35 0 11 -7 22 -15 26 -8 3 -15 9 -14 13 1 4 1 23 0
41 -1 24 -5 31 -13 26 -9 -5 -8 -2 1 9 8 10 11 20 7 24 -3 3 -7 0 -8 -8 -4
-42 -13 99 -10 174 3 64 7 85 15 80 7 -4 5 2 -3 12 -9 11 -10 16 -2 11 16 -9
16 6 0 23 -7 7 -8 11 -3 9 6 -2 12 2 13 7 2 6 8 18 13 27 6 11 5 18 -4 21 -7
3 -5 6 6 6 11 1 17 9 17 27 0 14 4 23 10 19 9 -6 14 14 11 42 -1 6 4 15 10 19
8 5 9 3 4 -6 -5 -9 -4 -11 3 -6 7 4 12 16 12 27 0 10 5 19 10 19 6 0 10 9 10
21 0 11 4 18 9 14 13 -7 52 45 44 59 -3 6 -3 8 2 4 4 -4 23 11 43 32 19 22 42
40 49 40 8 0 11 5 7 12 -4 6 -3 8 3 5 5 -3 17 3 26 14 9 10 26 19 37 19 11 0
20 5 20 11 0 5 5 7 10 4 6 -3 10 -1 10 5 0 7 7 9 16 6 8 -3 13 -2 10 3 -3 5 1
12 10 15 10 4 13 2 8 -7 -6 -8 -3 -8 9 1 9 8 21 11 27 7 5 -3 13 1 16 10 5 13
9 13 22 3 12 -10 14 -10 8 0 -5 9 5 12 39 12 25 0 44 4 41 8 -3 5 1 9 9 9 8 0
12 -4 9 -8 -2 -4 8 -4 24 0 17 5 36 5 46 -1 11 -6 21 -6 30 1 9 7 16 7 24 -1
8 -8 16 -8 28 3 13 10 16 11 10 1 -5 -9 -3 -13 5 -11 36 4 80 -2 74 -11 -8
-13 1 -13 27 1 15 8 19 8 14 0 -10 -15 7 -14 23 2 10 10 11 8 5 -8 -7 -17 -5
-18 8 -8 8 7 19 9 23 5 5 -4 5 -1 1 6 -5 8 1 12 21 13 15 1 32 1 36 0 5 -1 6
3 2 9 -3 6 3 14 14 18 11 4 21 12 23 17 2 6 6 9 11 7 4 -1 6 1 6 5 -4 24 2 53
10 49 14 -9 16 7 13 69 -3 38 -7 53 -15 48 -7 -4 -5 2 3 12 9 11 10 16 3 11
-7 -4 -13 -2 -13 4 0 13 -57 70 -70 70 -6 0 -10 4 -10 9 0 5 -7 12 -16 15 -8
3 -12 2 -9 -4 7 -12 -28 0 -36 12 -3 5 -19 10 -35 12 -17 1 -28 7 -26 15 1 7
-2 10 -8 6 -6 -3 -8 -11 -5 -16 4 -5 -1 -9 -10 -9 -10 0 -13 5 -9 13 6 9 4 9
-8 -1 -14 -11 -18 -10 -27 5 -10 17 -10 17 -11 0 0 -10 -5 -15 -10 -12 -6 4
-7 12 -3 18 4 8 1 7 -9 -1 -12 -9 -18 -10 -23 -2 -5 8 -11 8 -21 -1 -10 -8
-14 -8 -14 0 0 6 -5 11 -11 11 -5 0 -7 -6 -3 -12 5 -9 2 -9 -9 1 -14 11 -17
11 -17 0 0 -9 -3 -10 -8 -4 -9 13 -27 13 -39 1 -5 -5 -2 -6 6 -1 10 6 12 4 6
-5 -6 -10 -10 -10 -19 2 -10 14 -14 14 -36 -1z m130 -351 c0 -5 -5 -10 -11
-10 -5 0 -7 5 -4 10 3 6 8 10 11 10 2 0 4 -4 4 -10z"/>
<path d="M3347 3693 c-4 -3 -7 -19 -7 -35 0 -20 -5 -28 -17 -29 -12 0 -13 -2
-5 -6 10 -4 9 -10 -4 -30 -9 -14 -12 -23 -7 -20 5 4 10 0 10 -8 0 -8 -4 -12
-8 -10 -9 6 -19 -20 -19 -50 0 -13 -5 -25 -11 -27 -5 -2 -11 -18 -11 -35 -1
-18 -5 -30 -10 -27 -4 3 -9 0 -9 -5 -1 -6 -3 -15 -4 -21 -1 -5 -3 -19 -4 -31
0 -11 -5 -17 -11 -14 -6 4 -10 -8 -10 -29 0 -19 -5 -38 -10 -41 -6 -4 -8 -11
-5 -16 4 -5 1 -9 -5 -9 -6 0 -10 -6 -9 -12 4 -31 -2 -49 -12 -42 -9 5 -10 -1
-5 -20 5 -21 3 -26 -11 -26 -15 0 -16 -2 -3 -10 9 -6 10 -10 3 -10 -6 0 -13
-15 -15 -32 -2 -18 -8 -32 -14 -31 -6 1 -10 -11 -9 -28 1 -16 -2 -29 -6 -29
-5 0 -5 -7 -2 -17 4 -11 3 -14 -5 -9 -8 5 -12 -5 -12 -33 0 -29 -4 -41 -14
-41 -9 0 -13 -9 -11 -25 1 -17 -3 -25 -14 -25 -13 0 -13 -2 -3 -9 10 -6 11
-13 4 -27 -6 -11 -16 -33 -23 -51 -7 -17 -18 -29 -24 -25 -5 3 -4 -1 3 -10 13
-17 6 -52 -9 -42 -6 3 -8 -5 -5 -19 6 -33 -3 -41 -22 -19 -12 14 -11 12 1 -8
14 -24 13 -26 -4 -27 -12 -1 -16 3 -12 13 3 8 0 14 -7 14 -7 0 -10 6 -7 14 3
7 -1 23 -9 34 -8 12 -13 27 -12 34 2 7 -3 12 -11 10 -12 -3 -12 -1 0 14 9 12
9 15 2 10 -9 -5 -13 1 -13 21 0 15 -9 39 -19 52 l-18 24 -463 -1 c-254 -1
-469 -2 -477 -2 -8 0 -11 -4 -8 -10 4 -6 -7 -10 -24 -10 -17 0 -30 -3 -30 -7
3 -20 -2 -26 -11 -13 -8 12 -10 11 -10 -6 0 -12 -7 -25 -16 -28 -8 -3 -13 -10
-10 -15 3 -4 -3 -19 -14 -31 -13 -15 -17 -28 -11 -39 11 -21 3 -43 -12 -34 -7
3 -5 -2 3 -13 9 -10 15 -28 15 -39 0 -11 5 -26 12 -33 7 -7 13 -20 13 -28 0
-8 5 -12 10 -9 6 3 10 1 10 -6 0 -17 31 -38 60 -39 23 -1 23 -2 5 -10 -19 -8
-18 -9 5 -11 66 -5 96 -4 112 3 9 5 20 4 23 -2 4 -7 13 -7 26 0 10 6 19 7 19
2 0 -4 15 -7 33 -6 17 1 32 3 32 4 0 6 47 5 51 -2 3 -4 14 -3 25 2 10 6 19 7
19 2 0 -4 15 -7 33 -6 17 1 32 3 32 4 0 6 47 5 51 -2 3 -4 14 -3 25 2 10 6 19
7 19 3 0 -4 16 -9 35 -9 19 -1 35 3 35 8 0 5 6 6 13 1 17 -11 31 -10 39 2 5 7
8 7 8 -1 0 -6 34 -10 95 -9 92 2 95 1 95 -20 0 -13 7 -28 15 -35 9 -7 14 -19
11 -27 -3 -7 0 -13 7 -13 7 0 13 -8 14 -17 3 -44 8 -61 15 -57 7 5 13 -27 9
-49 -1 -5 3 -6 8 -3 11 7 19 -12 16 -42 -1 -13 4 -22 12 -22 7 0 13 -11 13
-24 0 -13 5 -26 10 -28 6 -2 13 -17 16 -33 3 -17 9 -31 15 -33 5 -2 9 -15 9
-28 0 -13 5 -24 10 -24 6 0 10 -14 10 -30 0 -17 6 -33 13 -36 7 -2 14 -14 14
-27 1 -12 7 -23 13 -25 5 -2 10 -12 10 -22 0 -26 10 -50 22 -50 5 0 6 5 3 10
-3 6 1 10 9 10 9 0 15 3 15 8 -5 28 3 72 11 67 6 -3 10 5 10 19 0 31 10 57 19
51 4 -2 8 2 8 10 0 8 -4 12 -8 10 -4 -3 -2 6 4 19 7 13 14 23 17 21 3 -2 6 10
7 26 1 15 10 41 20 56 14 21 14 25 3 18 -12 -7 -13 -6 -3 7 7 8 10 18 6 21 -3
4 0 7 8 7 11 0 11 2 -1 10 -13 8 -12 10 3 10 12 0 17 8 17 31 0 16 4 28 9 25
5 -4 8 5 6 19 -1 14 2 25 8 25 6 0 7 3 4 7 -4 3 1 12 11 20 9 8 11 12 5 8 -7
-3 -13 -1 -13 4 0 6 5 11 12 11 6 0 8 3 5 7 -4 3 0 17 9 31 11 17 12 22 3 16
-11 -6 -12 -5 -2 7 7 9 13 29 15 47 1 21 6 28 13 22 7 -6 11 -2 12 13 1 64 3
72 13 57 7 -11 10 -5 10 23 0 20 5 37 10 37 6 0 10 11 10 25 0 14 4 25 9 25 5
0 11 9 13 20 3 21 3 21 16 -1 11 -17 11 -20 0 -13 -10 6 -11 5 -1 -7 13 -16
13 -17 13 -60 0 -21 4 -28 13 -23 7 5 6 0 -3 -11 -9 -11 -10 -16 -2 -11 6 4
12 3 12 -1 0 -5 -6 -15 -12 -22 -11 -10 -10 -11 2 -6 12 4 16 -4 17 -37 2 -23
8 -45 14 -49 8 -4 7 -8 -2 -12 -10 -4 -10 -6 -1 -6 7 -1 12 -15 12 -37 0 -25
3 -33 13 -28 7 5 6 0 -3 -11 -8 -10 -10 -16 -4 -12 7 4 14 -2 17 -13 3 -12 1
-18 -5 -14 -6 4 -5 -3 1 -15 7 -11 8 -21 4 -21 -4 0 -2 -4 4 -8 7 -4 14 -31
17 -60 2 -29 9 -59 15 -66 6 -7 12 -32 13 -55 1 -22 6 -41 11 -41 5 0 7 -7 3
-15 -3 -8 -2 -15 2 -15 4 0 8 -19 8 -41 1 -23 7 -45 14 -49 6 -4 11 -10 11
-14 -5 -37 1 -66 12 -60 9 6 9 4 -1 -8 -9 -12 -10 -17 -1 -20 6 -2 12 -23 13
-47 1 -25 8 -46 16 -51 13 -8 13 -10 0 -10 -13 0 -13 -2 -1 -9 8 -5 12 -18 8
-30 -3 -12 -1 -24 4 -27 5 -3 7 -10 4 -15 -4 -5 -2 -9 2 -9 10 0 14 -25 16
-83 0 -21 4 -33 7 -26 5 7 10 8 14 1 3 -6 2 -14 -4 -17 -8 -5 -8 -11 -1 -19 6
-7 9 -23 6 -35 -3 -16 0 -21 9 -18 7 3 13 -1 13 -9 0 -7 -5 -11 -10 -7 -5 3
-4 -4 2 -15 6 -11 11 -32 11 -47 0 -16 4 -24 11 -19 7 4 7 -1 -1 -16 -7 -12
-8 -20 -3 -17 4 3 13 -6 20 -19 6 -13 7 -22 2 -18 -5 3 -9 -4 -9 -15 0 -10 5
-21 11 -23 6 -2 12 -24 14 -48 1 -29 6 -44 14 -42 9 2 9 -3 1 -19 -7 -11 -9
-23 -6 -27 3 -3 7 1 7 9 2 16 19 -86 19 -116 1 -16 3 -17 10 -5 5 8 6 18 4 22
-3 4 2 8 10 8 15 0 21 38 19 107 -1 7 3 10 8 7 9 -5 10 0 13 58 1 15 6 31 10
35 5 5 6 2 1 -7 -5 -8 -4 -12 0 -7 9 8 14 32 16 84 0 18 5 30 10 27 5 -3 9 5
8 18 0 42 6 73 16 80 6 3 10 29 10 56 0 28 4 50 10 49 6 -1 11 18 13 43 2 24
7 47 12 50 5 3 11 25 14 50 2 25 5 46 5 48 1 2 7 0 14 -4 8 -5 8 -2 -2 9 -7 9
-9 17 -4 17 5 0 10 12 11 26 1 15 6 32 12 39 6 8 5 16 -3 25 -9 10 -9 11 1 6
12 -7 16 9 12 48 -1 12 3 16 10 11 9 -6 9 -2 1 13 -8 16 -8 23 1 29 13 8 14
11 17 64 0 18 5 28 11 24 6 -4 10 -3 9 2 -1 4 -1 27 0 51 1 32 4 41 14 36 8
-5 8 -3 -2 9 -11 14 -11 18 1 22 9 4 14 17 13 33 -2 36 5 53 19 45 6 -4 4 2
-4 12 -8 10 -10 16 -4 12 11 -6 12 -2 16 72 1 17 5 28 10 25 8 -5 13 24 10 59
-1 10 2 15 8 12 6 -3 7 1 4 9 -3 9 -2 16 4 16 5 0 8 10 7 23 -1 12 5 33 13 46
8 13 9 20 3 17 -6 -4 -11 -2 -11 3 0 6 5 11 10 11 6 0 10 9 10 20 0 22 1 23
213 21 92 -1 117 2 111 11 -6 10 -4 11 7 1 16 -15 33 -17 24 -3 -3 6 -1 11 4
11 6 1 16 3 21 4 6 1 15 3 20 4 6 0 10 8 10 16 0 9 6 12 15 9 11 -4 13 -2 9 9
-3 8 0 18 7 23 8 5 10 3 4 -6 -5 -8 -4 -11 2 -7 5 4 10 38 10 77 0 54 -3 70
-14 70 -8 0 -12 3 -10 8 5 9 -30 42 -37 34 -3 -3 -6 0 -6 6 0 6 -7 9 -17 5
-12 -5 -14 -3 -8 8 8 12 6 12 -9 0 -15 -12 -17 -12 -14 0 2 8 -3 13 -12 11 -8
-2 -132 -3 -277 -4 -219 0 -263 -2 -263 -14 0 -8 -8 -14 -17 -14 -15 0 -16 -2
-3 -10 10 -6 11 -10 3 -10 -8 0 -13 -15 -13 -42 0 -32 -3 -39 -10 -28 -6 9
-10 10 -10 3 0 -6 5 -15 11 -19 8 -5 7 -10 -4 -16 -10 -5 -14 -15 -10 -25 5
-12 3 -14 -8 -8 -12 8 -12 6 0 -9 12 -14 12 -19 2 -26 -11 -6 -11 -9 -1 -15
10 -6 9 -11 -5 -21 -10 -7 -15 -20 -12 -28 4 -9 2 -18 -2 -20 -5 -3 -7 -17 -6
-31 2 -14 -1 -23 -5 -20 -5 3 -11 1 -15 -5 -3 -5 0 -10 7 -10 8 0 9 -3 3 -8
-6 -4 -10 -26 -10 -50 1 -23 -2 -37 -5 -31 -5 7 -9 5 -13 -5 -3 -8 -1 -17 6
-20 9 -3 9 -5 0 -5 -7 -1 -13 -11 -13 -24 0 -13 -6 -29 -12 -36 -10 -11 -10
-13 0 -7 6 4 12 2 12 -3 0 -6 -4 -11 -10 -11 -5 0 -10 -19 -10 -42 0 -24 -5
-50 -11 -58 -9 -12 -10 -12 -5 4 5 14 2 17 -11 14 -15 -4 -18 3 -19 44 -1 28
-7 55 -13 61 -6 6 -11 16 -11 22 0 5 5 3 10 -5 8 -13 10 -12 10 3 0 9 -4 17
-8 17 -9 0 -12 13 -14 67 -1 18 -5 30 -10 27 -5 -3 -5 -10 -2 -16 4 -7 2 -8
-4 -4 -9 5 -9 13 -2 27 8 14 7 19 -1 19 -8 0 -7 5 2 17 12 14 12 16 0 8 -11
-6 -13 -3 -8 14 3 12 -1 27 -9 35 -8 8 -14 30 -14 50 0 19 -5 38 -11 41 -6 4
-8 13 -5 21 3 7 2 15 -2 18 -5 3 -8 23 -7 45 1 28 -2 37 -10 31 -8 -6 -11 3
-12 33 -2 59 -2 59 -15 51 -10 -6 -10 -4 0 7 6 7 12 17 12 22 0 4 -6 5 -12 1
-8 -5 -8 -2 1 10 11 13 11 16 1 14 -9 -2 -13 10 -14 38 -1 22 -8 49 -16 59
-13 17 -13 18 0 10 12 -6 13 -5 3 6 -7 7 -13 23 -13 36 0 13 -6 23 -12 23 -9
0 -8 4 2 10 10 6 11 10 3 10 -9 0 -13 16 -13 44 0 24 -5 46 -11 48 -5 2 -11
24 -12 50 -1 27 -5 44 -11 41 -5 -4 -7 1 -3 10 3 9 2 17 -3 19 -6 2 -10 24
-11 50 -1 26 -5 45 -9 43 -4 -2 -7 2 -7 10 0 8 5 15 11 15 6 0 3 5 -7 11 -12
7 -16 17 -11 31 5 16 3 19 -7 12 -12 -7 -12 -5 0 9 11 14 11 18 -1 22 -7 3
-15 17 -16 31 -1 17 2 23 11 19 6 -4 3 1 -7 9 -11 9 -15 16 -9 16 6 0 8 12 5
27 -5 25 -6 25 -13 8 -6 -15 -8 -10 -9 20 -1 22 -2 48 -1 58 2 17 -28 25 -42
10z"/>
<path d="M2150 3650 c0 -5 5 -10 11 -10 5 0 7 5 4 10 -3 6 -8 10 -11 10 -2 0
-4 -4 -4 -10z"/>
<path d="M1380 3199 c0 -5 5 -7 10 -4 6 3 10 8 10 11 0 2 -4 4 -10 4 -5 0 -10
-5 -10 -11z"/>
<path d="M3718 2223 c7 -3 16 -2 19 1 4 3 -2 6 -13 5 -11 0 -14 -3 -6 -6z"/>
</g>
</svg>
